<svg xmlns="http://www.w3.org/2000/svg" width="3200" height="2700" viewBox="0 0 3200 2700">
<rect width="100%" height="100%" fill="#f8fafc"/>
<text x="70" y="72" font-family="Arial" font-size="44" font-weight="bold" fill="#0f172a">CBeave Version 1 ERD</text>
<line x1="1213.0" y1="310.0" x2="439.0" y2="294.5" stroke="#cbd5e1" stroke-width="3"/>
<line x1="1987.0" y1="232.5" x2="439.0" y2="294.5" stroke="#cbd5e1" stroke-width="3"/>
<line x1="2761.0" y1="248.0" x2="439.0" y2="294.5" stroke="#cbd5e1" stroke-width="3"/>
<line x1="439.0" y1="679.5" x2="439.0" y2="294.5" stroke="#cbd5e1" stroke-width="3"/>
<line x1="1213.0" y1="989.5" x2="439.0" y2="294.5" stroke="#cbd5e1" stroke-width="3"/>
<line x1="1213.0" y1="989.5" x2="439.0" y2="679.5" stroke="#cbd5e1" stroke-width="3"/>
<line x1="1987.0" y1="524.5" x2="439.0" y2="294.5" stroke="#cbd5e1" stroke-width="3"/>
<line x1="1987.0" y1="524.5" x2="1213.0" y2="989.5" stroke="#cbd5e1" stroke-width="3"/>
<line x1="2761.0" y1="571.0" x2="1213.0" y2="989.5" stroke="#cbd5e1" stroke-width="3"/>
<line x1="439.0" y1="971.5" x2="439.0" y2="294.5" stroke="#cbd5e1" stroke-width="3"/>
<line x1="439.0" y1="971.5" x2="1213.0" y2="989.5" stroke="#cbd5e1" stroke-width="3"/>
<line x1="1213.0" y1="1591.5" x2="439.0" y2="294.5" stroke="#cbd5e1" stroke-width="3"/>
<line x1="1213.0" y1="1591.5" x2="1213.0" y2="989.5" stroke="#cbd5e1" stroke-width="3"/>
<line x1="1987.0" y1="847.5" x2="1213.0" y2="989.5" stroke="#cbd5e1" stroke-width="3"/>
<line x1="1987.0" y1="847.5" x2="1987.0" y2="524.5" stroke="#cbd5e1" stroke-width="3"/>
<line x1="2761.0" y1="940.5" x2="439.0" y2="294.5" stroke="#cbd5e1" stroke-width="3"/>
<line x1="2761.0" y1="940.5" x2="1213.0" y2="989.5" stroke="#cbd5e1" stroke-width="3"/>
<line x1="2761.0" y1="940.5" x2="1987.0" y2="524.5" stroke="#cbd5e1" stroke-width="3"/>
<line x1="439.0" y1="1248.0" x2="439.0" y2="294.5" stroke="#cbd5e1" stroke-width="3"/>
<line x1="439.0" y1="1248.0" x2="1213.0" y2="989.5" stroke="#cbd5e1" stroke-width="3"/>
<line x1="439.0" y1="1248.0" x2="439.0" y2="679.5" stroke="#cbd5e1" stroke-width="3"/>
<line x1="1213.0" y1="1868.0" x2="1213.0" y2="989.5" stroke="#cbd5e1" stroke-width="3"/>
<line x1="1213.0" y1="1868.0" x2="439.0" y2="294.5" stroke="#cbd5e1" stroke-width="3"/>
<line x1="1213.0" y1="1868.0" x2="1987.0" y2="524.5" stroke="#cbd5e1" stroke-width="3"/>
<rect x="70" y="120" width="738" height="349" rx="15" fill="white" stroke="#94a3b8" stroke-width="3"/>
<path d="M85,120 H793 Q808,120 808,135 V174 H70 V135 Q70,120 85,120" fill="#2563eb"/>
<text x="88" y="157" font-family="Arial" font-size="25" font-weight="bold" fill="white">users</text>
<text x="86" y="208" font-family="Arial" font-size="19" fill="#0f172a">id</text>
<text x="439.0" y="208" font-family="Arial" font-size="17" fill="#475569">uuid</text>
<text x="763" y="208" font-family="Arial" font-size="17" fill="#2563eb">PK</text>
<text x="86" y="239" font-family="Arial" font-size="19" fill="#0f172a">email</text>
<text x="439.0" y="239" font-family="Arial" font-size="17" fill="#475569">text</text>
<text x="86" y="270" font-family="Arial" font-size="19" fill="#0f172a">password_hash</text>
<text x="439.0" y="270" font-family="Arial" font-size="17" fill="#475569">text</text>
<text x="86" y="301" font-family="Arial" font-size="19" fill="#0f172a">role</text>
<text x="439.0" y="301" font-family="Arial" font-size="17" fill="#475569">user_role</text>
<text x="86" y="332" font-family="Arial" font-size="19" fill="#0f172a">status</text>
<text x="439.0" y="332" font-family="Arial" font-size="17" fill="#475569">user_status</text>
<text x="86" y="363" font-family="Arial" font-size="19" fill="#0f172a">email_verified_at</text>
<text x="439.0" y="363" font-family="Arial" font-size="17" fill="#475569">timestamptz</text>
<text x="86" y="394" font-family="Arial" font-size="19" fill="#0f172a">last_login_at</text>
<text x="439.0" y="394" font-family="Arial" font-size="17" fill="#475569">timestamptz</text>
<text x="86" y="425" font-family="Arial" font-size="19" fill="#0f172a">created_at</text>
<text x="439.0" y="425" font-family="Arial" font-size="17" fill="#475569">timestamptz</text>
<text x="86" y="456" font-family="Arial" font-size="19" fill="#0f172a">updated_at</text>
<text x="439.0" y="456" font-family="Arial" font-size="17" fill="#475569">timestamptz</text>
<rect x="844" y="120" width="738" height="380" rx="15" fill="white" stroke="#94a3b8" stroke-width="3"/>
<path d="M859,120 H1567 Q1582,120 1582,135 V174 H844 V135 Q844,120 859,120" fill="#2563eb"/>
<text x="862" y="157" font-family="Arial" font-size="25" font-weight="bold" fill="white">user_profiles</text>
<text x="860" y="208" font-family="Arial" font-size="19" fill="#0f172a">user_id</text>
<text x="1213.0" y="208" font-family="Arial" font-size="17" fill="#475569">uuid</text>
<text x="1537" y="208" font-family="Arial" font-size="17" fill="#2563eb">PK</text>
<text x="860" y="239" font-family="Arial" font-size="19" fill="#0f172a">first_name</text>
<text x="1213.0" y="239" font-family="Arial" font-size="17" fill="#475569">varchar(100)</text>
<text x="860" y="270" font-family="Arial" font-size="19" fill="#0f172a">last_name</text>
<text x="1213.0" y="270" font-family="Arial" font-size="17" fill="#475569">varchar(100)</text>
<text x="860" y="301" font-family="Arial" font-size="19" fill="#0f172a">display_name</text>
<text x="1213.0" y="301" font-family="Arial" font-size="17" fill="#475569">varchar(80)</text>
<text x="860" y="332" font-family="Arial" font-size="19" fill="#0f172a">avatar_url</text>
<text x="1213.0" y="332" font-family="Arial" font-size="17" fill="#475569">text</text>
<text x="860" y="363" font-family="Arial" font-size="19" fill="#0f172a">bio</text>
<text x="1213.0" y="363" font-family="Arial" font-size="17" fill="#475569">varchar(500)</text>
<text x="860" y="394" font-family="Arial" font-size="19" fill="#0f172a">phone</text>
<text x="1213.0" y="394" font-family="Arial" font-size="17" fill="#475569">varchar(40)</text>
<text x="860" y="425" font-family="Arial" font-size="19" fill="#0f172a">location</text>
<text x="1213.0" y="425" font-family="Arial" font-size="17" fill="#475569">varchar(160)</text>
<text x="860" y="456" font-family="Arial" font-size="19" fill="#0f172a">created_at</text>
<text x="1213.0" y="456" font-family="Arial" font-size="17" fill="#475569">timestamptz</text>
<text x="860" y="487" font-family="Arial" font-size="19" fill="#0f172a">updated_at</text>
<text x="1213.0" y="487" font-family="Arial" font-size="17" fill="#475569">timestamptz</text>
<rect x="1618" y="120" width="738" height="225" rx="15" fill="white" stroke="#94a3b8" stroke-width="3"/>
<path d="M1633,120 H2341 Q2356,120 2356,135 V174 H1618 V135 Q1618,120 1633,120" fill="#2563eb"/>
<text x="1636" y="157" font-family="Arial" font-size="25" font-weight="bold" fill="white">auth_accounts</text>
<text x="1634" y="208" font-family="Arial" font-size="19" fill="#0f172a">id</text>
<text x="1987.0" y="208" font-family="Arial" font-size="17" fill="#475569">uuid</text>
<text x="2311" y="208" font-family="Arial" font-size="17" fill="#2563eb">PK</text>
<text x="1634" y="239" font-family="Arial" font-size="19" fill="#0f172a">user_id</text>
<text x="1987.0" y="239" font-family="Arial" font-size="17" fill="#475569">uuid</text>
<text x="2311" y="239" font-family="Arial" font-size="17" fill="#2563eb">FK</text>
<text x="1634" y="270" font-family="Arial" font-size="19" fill="#0f172a">provider</text>
<text x="1987.0" y="270" font-family="Arial" font-size="17" fill="#475569">auth_provider</text>
<text x="1634" y="301" font-family="Arial" font-size="19" fill="#0f172a">provider_account_id</text>
<text x="1987.0" y="301" font-family="Arial" font-size="17" fill="#475569">varchar(255)</text>
<text x="1634" y="332" font-family="Arial" font-size="19" fill="#0f172a">created_at</text>
<text x="1987.0" y="332" font-family="Arial" font-size="17" fill="#475569">timestamptz</text>
<rect x="2392" y="120" width="738" height="256" rx="15" fill="white" stroke="#94a3b8" stroke-width="3"/>
<path d="M2407,120 H3115 Q3130,120 3130,135 V174 H2392 V135 Q2392,120 2407,120" fill="#2563eb"/>
<text x="2410" y="157" font-family="Arial" font-size="25" font-weight="bold" fill="white">user_sessions</text>
<text x="2408" y="208" font-family="Arial" font-size="19" fill="#0f172a">id</text>
<text x="2761.0" y="208" font-family="Arial" font-size="17" fill="#475569">uuid</text>
<text x="3085" y="208" font-family="Arial" font-size="17" fill="#2563eb">PK</text>
<text x="2408" y="239" font-family="Arial" font-size="19" fill="#0f172a">user_id</text>
<text x="2761.0" y="239" font-family="Arial" font-size="17" fill="#475569">uuid</text>
<text x="3085" y="239" font-family="Arial" font-size="17" fill="#2563eb">FK</text>
<text x="2408" y="270" font-family="Arial" font-size="19" fill="#0f172a">refresh_token_hash</text>
<text x="2761.0" y="270" font-family="Arial" font-size="17" fill="#475569">varchar(255)</text>
<text x="2408" y="301" font-family="Arial" font-size="19" fill="#0f172a">expires_at</text>
<text x="2761.0" y="301" font-family="Arial" font-size="17" fill="#475569">timestamptz</text>
<text x="2408" y="332" font-family="Arial" font-size="19" fill="#0f172a">revoked_at</text>
<text x="2761.0" y="332" font-family="Arial" font-size="17" fill="#475569">timestamptz</text>
<text x="2408" y="363" font-family="Arial" font-size="19" fill="#0f172a">created_at</text>
<text x="2761.0" y="363" font-family="Arial" font-size="17" fill="#475569">timestamptz</text>
<rect x="70" y="505" width="738" height="349" rx="15" fill="white" stroke="#94a3b8" stroke-width="3"/>
<path d="M85,505 H793 Q808,505 808,520 V559 H70 V520 Q70,505 85,505" fill="#0f766e"/>
<text x="88" y="542" font-family="Arial" font-size="25" font-weight="bold" fill="white">categories</text>
<text x="86" y="593" font-family="Arial" font-size="19" fill="#0f172a">id</text>
<text x="439.0" y="593" font-family="Arial" font-size="17" fill="#475569">uuid</text>
<text x="763" y="593" font-family="Arial" font-size="17" fill="#0f766e">PK</text>
<text x="86" y="624" font-family="Arial" font-size="19" fill="#0f172a">parent_id</text>
<text x="439.0" y="624" font-family="Arial" font-size="17" fill="#475569">uuid</text>
<text x="763" y="624" font-family="Arial" font-size="17" fill="#0f766e">FK</text>
<text x="86" y="655" font-family="Arial" font-size="19" fill="#0f172a">name</text>
<text x="439.0" y="655" font-family="Arial" font-size="17" fill="#475569">varchar(120)</text>
<text x="86" y="686" font-family="Arial" font-size="19" fill="#0f172a">slug</text>
<text x="439.0" y="686" font-family="Arial" font-size="17" fill="#475569">varchar(140)</text>
<text x="86" y="717" font-family="Arial" font-size="19" fill="#0f172a">description</text>
<text x="439.0" y="717" font-family="Arial" font-size="17" fill="#475569">varchar(500)</text>
<text x="86" y="748" font-family="Arial" font-size="19" fill="#0f172a">is_active</text>
<text x="439.0" y="748" font-family="Arial" font-size="17" fill="#475569">boolean</text>
<text x="86" y="779" font-family="Arial" font-size="19" fill="#0f172a">created_by_admin_id</text>
<text x="439.0" y="779" font-family="Arial" font-size="17" fill="#475569">uuid</text>
<text x="763" y="779" font-family="Arial" font-size="17" fill="#0f766e">FK</text>
<text x="86" y="810" font-family="Arial" font-size="19" fill="#0f172a">created_at</text>
<text x="439.0" y="810" font-family="Arial" font-size="17" fill="#475569">timestamptz</text>
<text x="86" y="841" font-family="Arial" font-size="19" fill="#0f172a">updated_at</text>
<text x="439.0" y="841" font-family="Arial" font-size="17" fill="#475569">timestamptz</text>
<rect x="844" y="536" width="738" height="907" rx="15" fill="white" stroke="#94a3b8" stroke-width="3"/>
<path d="M859,536 H1567 Q1582,536 1582,551 V590 H844 V551 Q844,536 859,536" fill="#0f766e"/>
<text x="862" y="573" font-family="Arial" font-size="25" font-weight="bold" fill="white">auctions</text>
<text x="860" y="624" font-family="Arial" font-size="19" fill="#0f172a">id</text>
<text x="1213.0" y="624" font-family="Arial" font-size="17" fill="#475569">uuid</text>
<text x="1537" y="624" font-family="Arial" font-size="17" fill="#0f766e">PK</text>
<text x="860" y="655" font-family="Arial" font-size="19" fill="#0f172a">seller_id</text>
<text x="1213.0" y="655" font-family="Arial" font-size="17" fill="#475569">uuid</text>
<text x="1537" y="655" font-family="Arial" font-size="17" fill="#0f766e">FK</text>
<text x="860" y="686" font-family="Arial" font-size="19" fill="#0f172a">category_id</text>
<text x="1213.0" y="686" font-family="Arial" font-size="17" fill="#475569">uuid</text>
<text x="1537" y="686" font-family="Arial" font-size="17" fill="#0f766e">FK</text>
<text x="860" y="717" font-family="Arial" font-size="19" fill="#0f172a">title</text>
<text x="1213.0" y="717" font-family="Arial" font-size="17" fill="#475569">varchar(180)</text>
<text x="860" y="748" font-family="Arial" font-size="19" fill="#0f172a">description</text>
<text x="1213.0" y="748" font-family="Arial" font-size="17" fill="#475569">text</text>
<text x="860" y="779" font-family="Arial" font-size="19" fill="#0f172a">status</text>
<text x="1213.0" y="779" font-family="Arial" font-size="17" fill="#475569">auction_status</text>
<text x="860" y="810" font-family="Arial" font-size="19" fill="#0f172a">currency</text>
<text x="1213.0" y="810" font-family="Arial" font-size="17" fill="#475569">char(3)</text>
<text x="860" y="841" font-family="Arial" font-size="19" fill="#0f172a">starting_price</text>
<text x="1213.0" y="841" font-family="Arial" font-size="17" fill="#475569">decimal(18,2)</text>
<text x="860" y="872" font-family="Arial" font-size="19" fill="#0f172a">reserve_price</text>
<text x="1213.0" y="872" font-family="Arial" font-size="17" fill="#475569">decimal(18,2)</text>
<text x="860" y="903" font-family="Arial" font-size="19" fill="#0f172a">min_bid_increment</text>
<text x="1213.0" y="903" font-family="Arial" font-size="17" fill="#475569">decimal(18,2)</text>
<text x="860" y="934" font-family="Arial" font-size="19" fill="#0f172a">current_price</text>
<text x="1213.0" y="934" font-family="Arial" font-size="17" fill="#475569">decimal(18,2)</text>
<text x="860" y="965" font-family="Arial" font-size="19" fill="#0f172a">bid_count</text>
<text x="1213.0" y="965" font-family="Arial" font-size="17" fill="#475569">int</text>
<text x="860" y="996" font-family="Arial" font-size="19" fill="#0f172a">scheduled_start_at</text>
<text x="1213.0" y="996" font-family="Arial" font-size="17" fill="#475569">timestamptz</text>
<text x="860" y="1027" font-family="Arial" font-size="19" fill="#0f172a">original_end_at</text>
<text x="1213.0" y="1027" font-family="Arial" font-size="17" fill="#475569">timestamptz</text>
<text x="860" y="1058" font-family="Arial" font-size="19" fill="#0f172a">current_end_at</text>
<text x="1213.0" y="1058" font-family="Arial" font-size="17" fill="#475569">timestamptz</text>
<text x="860" y="1089" font-family="Arial" font-size="19" fill="#0f172a">published_at</text>
<text x="1213.0" y="1089" font-family="Arial" font-size="17" fill="#475569">timestamptz</text>
<text x="860" y="1120" font-family="Arial" font-size="19" fill="#0f172a">started_at</text>
<text x="1213.0" y="1120" font-family="Arial" font-size="17" fill="#475569">timestamptz</text>
<text x="860" y="1151" font-family="Arial" font-size="19" fill="#0f172a">ended_at</text>
<text x="1213.0" y="1151" font-family="Arial" font-size="17" fill="#475569">timestamptz</text>
<text x="860" y="1182" font-family="Arial" font-size="19" fill="#0f172a">extension_count</text>
<text x="1213.0" y="1182" font-family="Arial" font-size="17" fill="#475569">smallint</text>
<text x="860" y="1213" font-family="Arial" font-size="19" fill="#0f172a">winner_user_id</text>
<text x="1213.0" y="1213" font-family="Arial" font-size="17" fill="#475569">uuid</text>
<text x="1537" y="1213" font-family="Arial" font-size="17" fill="#0f766e">FK</text>
<text x="860" y="1244" font-family="Arial" font-size="19" fill="#0f172a">winning_bid_id</text>
<text x="1213.0" y="1244" font-family="Arial" font-size="17" fill="#475569">uuid</text>
<text x="1537" y="1244" font-family="Arial" font-size="17" fill="#0f766e">FK</text>
<text x="860" y="1275" font-family="Arial" font-size="19" fill="#0f172a">sold_price</text>
<text x="1213.0" y="1275" font-family="Arial" font-size="17" fill="#475569">decimal(18,2)</text>
<text x="860" y="1306" font-family="Arial" font-size="19" fill="#0f172a">cancellation_reason</text>
<text x="1213.0" y="1306" font-family="Arial" font-size="17" fill="#475569">varchar(500)</text>
<text x="860" y="1337" font-family="Arial" font-size="19" fill="#0f172a">row_version</text>
<text x="1213.0" y="1337" font-family="Arial" font-size="17" fill="#475569">int</text>
<text x="860" y="1368" font-family="Arial" font-size="19" fill="#0f172a">deleted_at</text>
<text x="1213.0" y="1368" font-family="Arial" font-size="17" fill="#475569">timestamptz</text>
<text x="860" y="1399" font-family="Arial" font-size="19" fill="#0f172a">created_at</text>
<text x="1213.0" y="1399" font-family="Arial" font-size="17" fill="#475569">timestamptz</text>
<text x="860" y="1430" font-family="Arial" font-size="19" fill="#0f172a">updated_at</text>
<text x="1213.0" y="1430" font-family="Arial" font-size="17" fill="#475569">timestamptz</text>
<rect x="1618" y="381" width="738" height="287" rx="15" fill="white" stroke="#94a3b8" stroke-width="3"/>
<path d="M1633,381 H2341 Q2356,381 2356,396 V435 H1618 V396 Q1618,381 1633,381" fill="#0f766e"/>
<text x="1636" y="418" font-family="Arial" font-size="25" font-weight="bold" fill="white">bids</text>
<text x="1634" y="469" font-family="Arial" font-size="19" fill="#0f172a">id</text>
<text x="1987.0" y="469" font-family="Arial" font-size="17" fill="#475569">uuid</text>
<text x="2311" y="469" font-family="Arial" font-size="17" fill="#0f766e">PK</text>
<text x="1634" y="500" font-family="Arial" font-size="19" fill="#0f172a">auction_id</text>
<text x="1987.0" y="500" font-family="Arial" font-size="17" fill="#475569">uuid</text>
<text x="2311" y="500" font-family="Arial" font-size="17" fill="#0f766e">FK</text>
<text x="1634" y="531" font-family="Arial" font-size="19" fill="#0f172a">bidder_id</text>
<text x="1987.0" y="531" font-family="Arial" font-size="17" fill="#475569">uuid</text>
<text x="2311" y="531" font-family="Arial" font-size="17" fill="#0f766e">FK</text>
<text x="1634" y="562" font-family="Arial" font-size="19" fill="#0f172a">amount</text>
<text x="1987.0" y="562" font-family="Arial" font-size="17" fill="#475569">decimal(18,2)</text>
<text x="1634" y="593" font-family="Arial" font-size="19" fill="#0f172a">sequence_no</text>
<text x="1987.0" y="593" font-family="Arial" font-size="17" fill="#475569">int</text>
<text x="1634" y="624" font-family="Arial" font-size="19" fill="#0f172a">client_request_id</text>
<text x="1987.0" y="624" font-family="Arial" font-size="17" fill="#475569">uuid</text>
<text x="1634" y="655" font-family="Arial" font-size="19" fill="#0f172a">placed_at</text>
<text x="1987.0" y="655" font-family="Arial" font-size="17" fill="#475569">timestamptz</text>
<rect x="2392" y="412" width="738" height="318" rx="15" fill="white" stroke="#94a3b8" stroke-width="3"/>
<path d="M2407,412 H3115 Q3130,412 3130,427 V466 H2392 V427 Q2392,412 2407,412" fill="#0f766e"/>
<text x="2410" y="449" font-family="Arial" font-size="25" font-weight="bold" fill="white">auction_images</text>
<text x="2408" y="500" font-family="Arial" font-size="19" fill="#0f172a">id</text>
<text x="2761.0" y="500" font-family="Arial" font-size="17" fill="#475569">uuid</text>
<text x="3085" y="500" font-family="Arial" font-size="17" fill="#0f766e">PK</text>
<text x="2408" y="531" font-family="Arial" font-size="19" fill="#0f172a">auction_id</text>
<text x="2761.0" y="531" font-family="Arial" font-size="17" fill="#475569">uuid</text>
<text x="3085" y="531" font-family="Arial" font-size="17" fill="#0f766e">FK</text>
<text x="2408" y="562" font-family="Arial" font-size="19" fill="#0f172a">storage_key</text>
<text x="2761.0" y="562" font-family="Arial" font-size="17" fill="#475569">varchar(500)</text>
<text x="2408" y="593" font-family="Arial" font-size="19" fill="#0f172a">url</text>
<text x="2761.0" y="593" font-family="Arial" font-size="17" fill="#475569">text</text>
<text x="2408" y="624" font-family="Arial" font-size="19" fill="#0f172a">alt_text</text>
<text x="2761.0" y="624" font-family="Arial" font-size="17" fill="#475569">varchar(255)</text>
<text x="2408" y="655" font-family="Arial" font-size="19" fill="#0f172a">position</text>
<text x="2761.0" y="655" font-family="Arial" font-size="17" fill="#475569">smallint</text>
<text x="2408" y="686" font-family="Arial" font-size="19" fill="#0f172a">is_primary</text>
<text x="2761.0" y="686" font-family="Arial" font-size="17" fill="#475569">boolean</text>
<text x="2408" y="717" font-family="Arial" font-size="19" fill="#0f172a">created_at</text>
<text x="2761.0" y="717" font-family="Arial" font-size="17" fill="#475569">timestamptz</text>
<rect x="70" y="890" width="738" height="163" rx="15" fill="white" stroke="#94a3b8" stroke-width="3"/>
<path d="M85,890 H793 Q808,890 808,905 V944 H70 V905 Q70,890 85,890" fill="#7c3aed"/>
<text x="88" y="927" font-family="Arial" font-size="25" font-weight="bold" fill="white">watchlists</text>
<text x="86" y="978" font-family="Arial" font-size="19" fill="#0f172a">user_id</text>
<text x="439.0" y="978" font-family="Arial" font-size="17" fill="#475569">uuid</text>
<text x="763" y="978" font-family="Arial" font-size="17" fill="#7c3aed">PK</text>
<text x="86" y="1009" font-family="Arial" font-size="19" fill="#0f172a">auction_id</text>
<text x="439.0" y="1009" font-family="Arial" font-size="17" fill="#475569">uuid</text>
<text x="763" y="1009" font-family="Arial" font-size="17" fill="#7c3aed">PK</text>
<text x="86" y="1040" font-family="Arial" font-size="19" fill="#0f172a">created_at</text>
<text x="439.0" y="1040" font-family="Arial" font-size="17" fill="#475569">timestamptz</text>
<rect x="844" y="1479" width="738" height="225" rx="15" fill="white" stroke="#94a3b8" stroke-width="3"/>
<path d="M859,1479 H1567 Q1582,1479 1582,1494 V1533 H844 V1494 Q844,1479 859,1479" fill="#7c3aed"/>
<text x="862" y="1516" font-family="Arial" font-size="25" font-weight="bold" fill="white">auction_participants</text>
<text x="860" y="1567" font-family="Arial" font-size="19" fill="#0f172a">auction_id</text>
<text x="1213.0" y="1567" font-family="Arial" font-size="17" fill="#475569">uuid</text>
<text x="1537" y="1567" font-family="Arial" font-size="17" fill="#7c3aed">PK</text>
<text x="860" y="1598" font-family="Arial" font-size="19" fill="#0f172a">user_id</text>
<text x="1213.0" y="1598" font-family="Arial" font-size="17" fill="#475569">uuid</text>
<text x="1537" y="1598" font-family="Arial" font-size="17" fill="#7c3aed">PK</text>
<text x="860" y="1629" font-family="Arial" font-size="19" fill="#0f172a">status</text>
<text x="1213.0" y="1629" font-family="Arial" font-size="17" fill="#475569">participant_status</text>
<text x="860" y="1660" font-family="Arial" font-size="19" fill="#0f172a">joined_at</text>
<text x="1213.0" y="1660" font-family="Arial" font-size="17" fill="#475569">timestamptz</text>
<text x="860" y="1691" font-family="Arial" font-size="19" fill="#0f172a">last_seen_at</text>
<text x="1213.0" y="1691" font-family="Arial" font-size="17" fill="#475569">timestamptz</text>
<rect x="1618" y="704" width="738" height="287" rx="15" fill="white" stroke="#94a3b8" stroke-width="3"/>
<path d="M1633,704 H2341 Q2356,704 2356,719 V758 H1618 V719 Q1618,704 1633,704" fill="#0f766e"/>
<text x="1636" y="741" font-family="Arial" font-size="25" font-weight="bold" fill="white">auction_extensions</text>
<text x="1634" y="792" font-family="Arial" font-size="19" fill="#0f172a">id</text>
<text x="1987.0" y="792" font-family="Arial" font-size="17" fill="#475569">uuid</text>
<text x="2311" y="792" font-family="Arial" font-size="17" fill="#0f766e">PK</text>
<text x="1634" y="823" font-family="Arial" font-size="19" fill="#0f172a">auction_id</text>
<text x="1987.0" y="823" font-family="Arial" font-size="17" fill="#475569">uuid</text>
<text x="2311" y="823" font-family="Arial" font-size="17" fill="#0f766e">FK</text>
<text x="1634" y="854" font-family="Arial" font-size="19" fill="#0f172a">triggered_by_bid_id</text>
<text x="1987.0" y="854" font-family="Arial" font-size="17" fill="#475569">uuid</text>
<text x="2311" y="854" font-family="Arial" font-size="17" fill="#0f766e">FK</text>
<text x="1634" y="885" font-family="Arial" font-size="19" fill="#0f172a">extension_number</text>
<text x="1987.0" y="885" font-family="Arial" font-size="17" fill="#475569">smallint</text>
<text x="1634" y="916" font-family="Arial" font-size="19" fill="#0f172a">previous_end_at</text>
<text x="1987.0" y="916" font-family="Arial" font-size="17" fill="#475569">timestamptz</text>
<text x="1634" y="947" font-family="Arial" font-size="19" fill="#0f172a">new_end_at</text>
<text x="1987.0" y="947" font-family="Arial" font-size="17" fill="#475569">timestamptz</text>
<text x="1634" y="978" font-family="Arial" font-size="19" fill="#0f172a">created_at</text>
<text x="1987.0" y="978" font-family="Arial" font-size="17" fill="#475569">timestamptz</text>
<rect x="2392" y="766" width="738" height="349" rx="15" fill="white" stroke="#94a3b8" stroke-width="3"/>
<path d="M2407,766 H3115 Q3130,766 3130,781 V820 H2392 V781 Q2392,766 2407,766" fill="#7c3aed"/>
<text x="2410" y="803" font-family="Arial" font-size="25" font-weight="bold" fill="white">notifications</text>
<text x="2408" y="854" font-family="Arial" font-size="19" fill="#0f172a">id</text>
<text x="2761.0" y="854" font-family="Arial" font-size="17" fill="#475569">uuid</text>
<text x="3085" y="854" font-family="Arial" font-size="17" fill="#7c3aed">PK</text>
<text x="2408" y="885" font-family="Arial" font-size="19" fill="#0f172a">user_id</text>
<text x="2761.0" y="885" font-family="Arial" font-size="17" fill="#475569">uuid</text>
<text x="3085" y="885" font-family="Arial" font-size="17" fill="#7c3aed">FK</text>
<text x="2408" y="916" font-family="Arial" font-size="19" fill="#0f172a">auction_id</text>
<text x="2761.0" y="916" font-family="Arial" font-size="17" fill="#475569">uuid</text>
<text x="3085" y="916" font-family="Arial" font-size="17" fill="#7c3aed">FK</text>
<text x="2408" y="947" font-family="Arial" font-size="19" fill="#0f172a">bid_id</text>
<text x="2761.0" y="947" font-family="Arial" font-size="17" fill="#475569">uuid</text>
<text x="3085" y="947" font-family="Arial" font-size="17" fill="#7c3aed">FK</text>
<text x="2408" y="978" font-family="Arial" font-size="19" fill="#0f172a">type</text>
<text x="2761.0" y="978" font-family="Arial" font-size="17" fill="#475569">notification_type</text>
<text x="2408" y="1009" font-family="Arial" font-size="19" fill="#0f172a">title</text>
<text x="2761.0" y="1009" font-family="Arial" font-size="17" fill="#475569">varchar(180)</text>
<text x="2408" y="1040" font-family="Arial" font-size="19" fill="#0f172a">message</text>
<text x="2761.0" y="1040" font-family="Arial" font-size="17" fill="#475569">varchar(800)</text>
<text x="2408" y="1071" font-family="Arial" font-size="19" fill="#0f172a">read_at</text>
<text x="2761.0" y="1071" font-family="Arial" font-size="17" fill="#475569">timestamptz</text>
<text x="2408" y="1102" font-family="Arial" font-size="19" fill="#0f172a">created_at</text>
<text x="2761.0" y="1102" font-family="Arial" font-size="17" fill="#475569">timestamptz</text>
<rect x="70" y="1089" width="738" height="318" rx="15" fill="white" stroke="#94a3b8" stroke-width="3"/>
<path d="M85,1089 H793 Q808,1089 808,1104 V1143 H70 V1104 Q70,1089 85,1089" fill="#b45309"/>
<text x="88" y="1126" font-family="Arial" font-size="25" font-weight="bold" fill="white">admin_actions</text>
<text x="86" y="1177" font-family="Arial" font-size="19" fill="#0f172a">id</text>
<text x="439.0" y="1177" font-family="Arial" font-size="17" fill="#475569">uuid</text>
<text x="763" y="1177" font-family="Arial" font-size="17" fill="#b45309">PK</text>
<text x="86" y="1208" font-family="Arial" font-size="19" fill="#0f172a">admin_user_id</text>
<text x="439.0" y="1208" font-family="Arial" font-size="17" fill="#475569">uuid</text>
<text x="763" y="1208" font-family="Arial" font-size="17" fill="#b45309">FK</text>
<text x="86" y="1239" font-family="Arial" font-size="19" fill="#0f172a">target_user_id</text>
<text x="439.0" y="1239" font-family="Arial" font-size="17" fill="#475569">uuid</text>
<text x="763" y="1239" font-family="Arial" font-size="17" fill="#b45309">FK</text>
<text x="86" y="1270" font-family="Arial" font-size="19" fill="#0f172a">auction_id</text>
<text x="439.0" y="1270" font-family="Arial" font-size="17" fill="#475569">uuid</text>
<text x="763" y="1270" font-family="Arial" font-size="17" fill="#b45309">FK</text>
<text x="86" y="1301" font-family="Arial" font-size="19" fill="#0f172a">category_id</text>
<text x="439.0" y="1301" font-family="Arial" font-size="17" fill="#475569">uuid</text>
<text x="763" y="1301" font-family="Arial" font-size="17" fill="#b45309">FK</text>
<text x="86" y="1332" font-family="Arial" font-size="19" fill="#0f172a">action_type</text>
<text x="439.0" y="1332" font-family="Arial" font-size="17" fill="#475569">admin_action_type</text>
<text x="86" y="1363" font-family="Arial" font-size="19" fill="#0f172a">note</text>
<text x="439.0" y="1363" font-family="Arial" font-size="17" fill="#475569">varchar(1000)</text>
<text x="86" y="1394" font-family="Arial" font-size="19" fill="#0f172a">created_at</text>
<text x="439.0" y="1394" font-family="Arial" font-size="17" fill="#475569">timestamptz</text>
<rect x="844" y="1740" width="738" height="256" rx="15" fill="white" stroke="#94a3b8" stroke-width="3"/>
<path d="M859,1740 H1567 Q1582,1740 1582,1755 V1794 H844 V1755 Q844,1740 859,1740" fill="#0f766e"/>
<text x="862" y="1777" font-family="Arial" font-size="25" font-weight="bold" fill="white">auction_events</text>
<text x="860" y="1828" font-family="Arial" font-size="19" fill="#0f172a">id</text>
<text x="1213.0" y="1828" font-family="Arial" font-size="17" fill="#475569">int</text>
<text x="1537" y="1828" font-family="Arial" font-size="17" fill="#0f766e">PK</text>
<text x="860" y="1859" font-family="Arial" font-size="19" fill="#0f172a">auction_id</text>
<text x="1213.0" y="1859" font-family="Arial" font-size="17" fill="#475569">uuid</text>
<text x="1537" y="1859" font-family="Arial" font-size="17" fill="#0f766e">FK</text>
<text x="860" y="1890" font-family="Arial" font-size="19" fill="#0f172a">actor_user_id</text>
<text x="1213.0" y="1890" font-family="Arial" font-size="17" fill="#475569">uuid</text>
<text x="1537" y="1890" font-family="Arial" font-size="17" fill="#0f766e">FK</text>
<text x="860" y="1921" font-family="Arial" font-size="19" fill="#0f172a">bid_id</text>
<text x="1213.0" y="1921" font-family="Arial" font-size="17" fill="#475569">uuid</text>
<text x="1537" y="1921" font-family="Arial" font-size="17" fill="#0f766e">FK</text>
<text x="860" y="1952" font-family="Arial" font-size="19" fill="#0f172a">event_type</text>
<text x="1213.0" y="1952" font-family="Arial" font-size="17" fill="#475569">auction_event_type</text>
<text x="860" y="1983" font-family="Arial" font-size="19" fill="#0f172a">created_at</text>
<text x="1213.0" y="1983" font-family="Arial" font-size="17" fill="#475569">timestamptz</text>
</svg>